<?xml version="1.0" encoding="iso-8859-1"?>
<!-- Generator: Adobe Illustrator 19.0.0, SVG Export Plug-In . SVG Version: 6.00 Build 0)  -->
<svg version="1.1" id="Capa_1" xmlns="http://www.w3.org/2000/svg" xmlns:xlink="http://www.w3.org/1999/xlink" x="0px" y="0px"
	 viewBox="0 0 512 512" style="enable-background:new 0 0 512 512;" xml:space="preserve">
<linearGradient id="SVGID_1_" gradientUnits="userSpaceOnUse" x1="0" y1="258" x2="512" y2="258" gradientTransform="matrix(1 0 0 -1 0 514)">
	<stop  offset="0" style="stop-color:#00F2FE"/>
	<stop  offset="0.021" style="stop-color:#03EFFE"/>
	<stop  offset="0.293" style="stop-color:#24D2FE"/>
	<stop  offset="0.554" style="stop-color:#3CBDFE"/>
	<stop  offset="0.796" style="stop-color:#4AB0FE"/>
	<stop  offset="1" style="stop-color:#4FACFE"/>
</linearGradient>
<path style="fill:url(#SVGID_1_);" d="M256,408.972c-15.364,0-30.729-5.849-42.427-17.545l-74.722-74.791
	c-7.807-7.814-7.801-20.478,0.013-28.284c7.812-7.808,20.477-7.802,28.284,0.013l74.716,74.784
	c7.79,7.791,20.479,7.792,28.277-0.006c0.029-0.029,0.059-0.058,0.088-0.087l75.716-74.784c7.858-7.762,20.521-7.684,28.284,0.175
	c7.762,7.858,7.684,20.521-0.175,28.284l-75.678,74.746C286.686,403.141,271.344,408.972,256,408.972z M276,288.5V20
	c0-11.046-8.954-20-20-20s-20,8.954-20,20v268.5c0,11.046,8.954,20,20,20C267.046,308.5,276,299.546,276,288.5z M512,492
	c0-11.046-8.954-20-20-20H20c-11.046,0-20,8.954-20,20s8.954,20,20,20h472C503.046,512,512,503.046,512,492z"/>
<g>
</g>
<g>
</g>
<g>
</g>
<g>
</g>
<g>
</g>
<g>
</g>
<g>
</g>
<g>
</g>
<g>
</g>
<g>
</g>
<g>
</g>
<g>
</g>
<g>
</g>
<g>
</g>
<g>
</g>
</svg>
