<?xml version="1.0" encoding="iso-8859-1"?>
<!-- Generator: Adobe Illustrator 19.0.0, SVG Export Plug-In . SVG Version: 6.00 Build 0)  -->
<svg version="1.1" id="Capa_1" xmlns="http://www.w3.org/2000/svg" xmlns:xlink="http://www.w3.org/1999/xlink" x="0px" y="0px"
	 viewBox="0 0 512 512" style="enable-background:new 0 0 512 512;" xml:space="preserve">
<path style="fill:#50555A;" d="M109.512,460.973c-6.679,0-12.092-5.413-12.092-12.092v-98.826c0-6.678,5.413-12.092,12.092-12.092
	c6.679,0,12.092,5.413,12.092,12.092v98.826C121.605,455.559,116.191,460.973,109.512,460.973z"/>
<circle style="fill:#BA6746;" cx="137.746" cy="74.252" r="48.363"/>
<path style="fill:#55696E;" d="M250.609,468.274l-41.564-122.236L95.186,316.643c-14.061-3.63-22.517-17.972-18.887-32.033
	c3.631-14.061,17.977-22.516,32.033-18.886l127.611,32.945c8.581,2.215,15.468,8.605,18.321,16.995l46.136,135.681
	c4.675,13.749-2.681,28.684-16.43,33.359C270.217,489.379,255.283,482.02,250.609,468.274z"/>
<path style="fill:#FFDA52;" d="M54.136,335.517h107.132c0.72-12.648,5.138-90.236,5.819-102.195l3.497-61.403
	c1.026-18.015-12.747-33.45-30.761-34.475l-31.29-1.781c-32.045-1.825-58.904,24.068-58.21,56.191l2.968,137.457
	C53.334,331.424,53.627,333.503,54.136,335.517z"/>
<path style="fill:#FF3C3C;" d="M175.569,361.726H43.64c-9.137,0-16.846-6.795-17.994-15.86L0.146,144.507
	c-1.258-9.938,5.777-19.015,15.715-20.273c9.936-1.258,19.015,5.777,20.273,15.715L59.626,325.45h115.942
	c10.017,0,18.138,8.121,18.138,18.138S185.586,361.726,175.569,361.726z"/>
<path style="fill:#80868C;" d="M151.895,482.569l-18.421-18.421H83.982l-18.421,18.421c-4.722,4.722-12.378,4.722-17.1,0
	s-4.722-12.378,0-17.101l21.961-21.962c2.267-2.267,5.343-3.542,8.55-3.542h59.51c3.207,0,6.283,1.273,8.55,3.542l21.962,21.962
	c4.722,4.722,4.722,12.378,0,17.101C164.274,487.291,156.617,487.291,151.895,482.569z"/>
<g>
	<path style="fill:#BA6746;" d="M436.291,291.374v175.099c0,10.846,8.792,19.639,19.639,19.639s19.639-8.792,19.639-19.639V291.374
		H436.291z"/>
	<path style="fill:#BA6746;" d="M147.086,247.306l-60.064-65.388c-8.187-8.912-7.599-22.774,1.315-30.961
		c8.912-8.187,22.775-7.598,30.96,1.314l50.754,55.253l74.65-22.591c11.581-3.505,23.814,3.043,27.32,14.625
		c3.506,11.583-3.043,23.814-14.626,27.32l-87.823,26.577C161.499,255.897,152.766,253.491,147.086,247.306z"/>
</g>
<path style="fill:#FFC305;" d="M151.964,187.836l-32.669-35.565c-8.185-8.912-22.047-9.5-30.96-1.314
	c-8.913,8.186-9.5,22.048-1.315,30.961l34.166,37.195L151.964,187.836z"/>
<path style="fill:#6C9BAA;" d="M480.308,232.095c-0.006,6.954-5.646,12.589-12.601,12.589h-53.792c-3.103,0-5.619-2.516-5.619-5.619
	v-13.963c0-3.103,2.516-5.619,5.619-5.619h41.201l0.082-92.374l25.202,0.023L480.308,232.095z"/>
<path style="fill:#A5C8CD;" d="M455.344,198.978c-1.59,3.928-6.063,5.822-9.99,4.232l-27.139-10.987
	c-3.928-1.59-5.822-6.063-4.232-9.99L470.076,43.67c1.59-3.928,6.063-5.822,9.99-4.232l27.139,10.987
	c3.928,1.59,5.822,6.063,4.232,9.99L455.344,198.978z"/>
<path style="fill:#6C9BAA;" d="M342.171,244.911h-80.817c-7.925,0-14.351-6.425-14.351-14.351c0-7.925,6.425-14.351,14.351-14.351
	h71.621l32.748-71.205c3.311-7.201,11.834-10.353,19.034-7.042c7.201,3.311,10.353,11.834,7.042,19.034l-36.591,79.559
	C352.867,241.648,347.776,244.911,342.171,244.911z"/>
<path style="fill:#0091C8;" d="M322.574,149.803c-4.033-0.978-6.511-5.041-5.532-9.074c4.957-20.439,24.798-41.987,51.781-56.234
	c26.981-14.247,55.966-18.481,75.64-11.048c3.883,1.467,5.841,5.803,4.374,9.686c-1.467,3.882-5.801,5.842-9.686,4.374
	c-15.528-5.865-40.378-1.831-63.311,10.279c-22.934,12.11-40.281,30.358-44.192,46.487
	C330.67,148.306,326.605,150.781,322.574,149.803z"/>
<path style="fill:#41B4E6;" d="M323.839,162.289c-1.649,1.808-4.626,1.316-5.6-0.937l-7.493-17.337
	c-1.061-2.455,1.023-5.116,3.66-4.674l20.222,3.383c2.637,0.441,3.741,3.636,1.94,5.611L323.839,162.289z"/>
<path style="fill:#0091C8;" d="M302.036,120.726c-4.073-0.796-6.731-4.742-5.935-8.815c4.029-20.642,22.877-43.063,49.188-58.515
	c26.312-15.452,55.074-20.989,75.064-14.453c3.945,1.289,6.097,5.533,4.806,9.477c-1.289,3.945-5.532,6.097-9.477,4.807
	c-15.774-5.159-40.42-0.005-62.783,13.128c-22.363,13.133-38.868,32.145-42.048,48.435
	C310.056,118.856,306.115,121.522,302.036,120.726z"/>
<path style="fill:#41B4E6;" d="M435.112,56.064c2.406-0.452,3.553-3.241,2.149-5.255l-10.802-15.494
	c-1.529-2.193-4.888-1.822-5.9,0.653l-7.761,18.977c-1.012,2.475,1.123,5.094,3.751,4.601L435.112,56.064z"/>
<path style="fill:#BA6746;" d="M219.088,291.374v175.099c0,10.846,8.792,19.639,19.639,19.639c10.847,0,19.639-8.792,19.639-19.639
	V291.374H219.088z"/>
<path style="fill:#E28C71;" d="M503.494,289.056c0,5.33-4.321,9.651-9.651,9.651h-293.03c-5.33,0-9.651-4.321-9.651-9.651v-34.889
	c0-5.33,4.321-9.651,9.651-9.651h293.029c5.33,0,9.651,4.321,9.651,9.651v34.889H503.494z"/>
<g>
</g>
<g>
</g>
<g>
</g>
<g>
</g>
<g>
</g>
<g>
</g>
<g>
</g>
<g>
</g>
<g>
</g>
<g>
</g>
<g>
</g>
<g>
</g>
<g>
</g>
<g>
</g>
<g>
</g>
</svg>
