<svg id="Capa_1" enable-background="new 0 0 512 512" height="512" viewBox="0 0 512 512" width="512" xmlns="http://www.w3.org/2000/svg" xmlns:xlink="http://www.w3.org/1999/xlink"><linearGradient id="SVGID_1_" gradientUnits="userSpaceOnUse" x1="136" x2="136" y1="482" y2="30"><stop offset="0" stop-color="#addcff"/><stop offset=".5028" stop-color="#eaf6ff"/><stop offset="1" stop-color="#eaf6ff"/></linearGradient><linearGradient id="SVGID_2_" gradientUnits="userSpaceOnUse" x1="361" x2="361" y1="512" y2="0"><stop offset="0" stop-color="#5558ff"/><stop offset="1" stop-color="#00c0ff"/></linearGradient><g><g><g><path d="m241 120c8.284 0 15-6.716 15-15v-60c0-8.284-6.716-15-15-15-124.272 0-225 101.907-225 226 0 124.272 100.894 226 225 226 8.284 0 15-6.716 15-15v-60c0-8.284-6.716-15-15-15-74.439 0-135-61.009-135-136s60.561-136 135-136z" fill="url(#SVGID_1_)"/></g></g><g><g><path d="m241 0c-8.284 0-15 6.716-15 15v120c0 8.284 6.716 15 15 15 57.897 0 105 47.552 105 106s-47.103 106-105 106c-8.284 0-15 6.716-15 15v120c0 8.284 6.716 15 15 15 140.607 0 255-114.841 255-256s-114.393-256-255-256z" fill="url(#SVGID_2_)"/></g></g></g></svg>