<?xml version="1.0" encoding="iso-8859-1"?>
<!-- Generator: Adobe Illustrator 19.0.0, SVG Export Plug-In . SVG Version: 6.00 Build 0)  -->
<svg version="1.1" id="Capa_1" xmlns="http://www.w3.org/2000/svg" xmlns:xlink="http://www.w3.org/1999/xlink" x="0px" y="0px"
	 viewBox="0 0 512 512" style="enable-background:new 0 0 512 512;" xml:space="preserve">
<linearGradient id="SVGID_1_" gradientUnits="userSpaceOnUse" x1="0" y1="258" x2="512" y2="258" gradientTransform="matrix(1 0 0 -1 0 514)">
	<stop  offset="0" style="stop-color:#00F2FE"/>
	<stop  offset="0.021" style="stop-color:#03EFFE"/>
	<stop  offset="0.293" style="stop-color:#24D2FE"/>
	<stop  offset="0.554" style="stop-color:#3CBDFE"/>
	<stop  offset="0.796" style="stop-color:#4AB0FE"/>
	<stop  offset="1" style="stop-color:#4FACFE"/>
</linearGradient>
<path style="fill:url(#SVGID_1_);" d="M153,229.5c-5.116,0-10.23-1.95-14.136-5.852c-7.813-7.807-7.819-20.47-0.013-28.284
	l74.716-74.784c23.386-23.385,61.412-23.402,84.81-0.056l75.678,74.746c7.858,7.762,7.937,20.425,0.175,28.284
	c-7.762,7.858-20.425,7.937-28.284,0.175l-75.716-74.784c-0.029-0.029-0.059-0.058-0.088-0.087c-7.797-7.798-20.486-7.798-28.283,0
	l-74.71,74.778C163.243,227.544,158.121,229.5,153,229.5z M276,492V223.5c0-11.046-8.954-20-20-20s-20,8.954-20,20V492
	c0,11.046,8.954,20,20,20C267.046,512,276,503.046,276,492z M512,20c0-11.046-8.954-20-20-20H20C8.954,0,0,8.954,0,20
	s8.954,20,20,20h472C503.046,40,512,31.046,512,20z"/>
<g>
</g>
<g>
</g>
<g>
</g>
<g>
</g>
<g>
</g>
<g>
</g>
<g>
</g>
<g>
</g>
<g>
</g>
<g>
</g>
<g>
</g>
<g>
</g>
<g>
</g>
<g>
</g>
<g>
</g>
</svg>
